<?xml version="1.0" standalone="no"?>
<!DOCTYPE svg PUBLIC "-//W3C//DTD SVG 20010904//EN"
 "http://www.w3.org/TR/2001/REC-SVG-20010904/DTD/svg10.dtd">
<svg version="1.0" xmlns="http://www.w3.org/2000/svg"
 width="256.000000pt" height="251.000000pt" viewBox="0 0 256.000000 251.000000"
 preserveAspectRatio="xMidYMid meet">
<metadata>
Created by potrace 1.16, written by Peter Selinger 2001-2019
</metadata>
<g transform="translate(0.000000,251.000000) scale(0.100000,-0.100000)"
fill="#000000" stroke="none">
<path d="M970 2472 c-61 -61 -70 -108 -70 -371 0 -438 -36 -991 -83 -1275
l-12 -71 -282 -5 -281 -5 -28 -25 c-56 -52 -67 -97 -74 -305 -7 -204 -16 -247
-61 -279 -13 -9 -36 -16 -51 -16 -28 0 -28 -1 -28 -60 l0 -60 691 0 c518 0
702 3 733 12 57 17 121 84 139 145 l14 48 224 5 c151 3 231 9 245 17 75 43
143 170 189 350 67 265 115 791 115 1261 l0 192 105 0 105 0 0 104 c0 171 -29
285 -88 349 l-26 27 -719 0 -719 0 -38 -38z m1274 -89 c-4 -10 -8 -175 -10
-368 -6 -779 -56 -1291 -154 -1542 -37 -98 -76 -143 -123 -143 -49 0 -96 19
-109 44 -7 11 -15 75 -18 142 -7 139 -24 186 -80 216 -32 17 -65 18 -430 18
l-396 0 18 123 c41 282 65 657 76 1163 6 297 8 324 26 343 19 21 22 21 614 21
562 0 594 -1 586 -17z m164 -8 c10 -22 22 -85 37 -192 l5 -43 -50 0 -50 0 0
95 c0 131 30 202 58 140z m-923 -1752 c-4 -10 -10 -106 -14 -213 -8 -212 -16
-243 -68 -277 -25 -17 -73 -18 -605 -21 -318 -1 -578 1 -578 5 0 4 7 28 16 53
11 32 18 102 23 237 6 167 9 194 25 212 19 21 26 21 614 21 562 0 594 -1 587
-17z m205 7 c11 -7 17 -38 21 -127 4 -65 10 -130 14 -145 l7 -28 -72 0 -72 0
4 134 c2 115 6 137 22 155 20 22 51 27 76 11z"/>
<path d="M1236 2014 c-20 -20 -20 -43 0 -72 14 -21 22 -22 149 -22 147 0 165
6 165 59 0 47 -13 51 -161 51 -112 0 -141 -3 -153 -16z"/>
<path d="M1346 1804 c-19 -18 -21 -65 -4 -82 17 -17 659 -17 676 0 17 17 15
64 -4 82 -13 14 -58 16 -334 16 -276 0 -321 -2 -334 -16z"/>
<path d="M1192 1594 c-14 -10 -22 -26 -22 -44 0 -59 7 -60 407 -60 350 0 364
1 383 20 11 11 20 29 20 40 0 11 -9 29 -20 40 -19 19 -33 20 -383 20 -312 0
-366 -2 -385 -16z"/>
<path d="M1182 1378 c-17 -17 -15 -64 4 -82 13 -14 65 -16 414 -16 349 0 401
2 414 16 19 18 21 65 4 82 -17 17 -819 17 -836 0z"/>
<path d="M1186 1164 c-19 -18 -21 -65 -4 -82 17 -17 709 -17 726 0 7 7 12 26
12 43 0 17 -5 36 -12 43 -9 9 -103 12 -359 12 -303 0 -350 -2 -363 -16z"/>
<path d="M1138 959 c-12 -6 -18 -22 -18 -44 0 -67 -12 -65 426 -65 381 0 395
1 414 20 11 11 20 29 20 40 0 11 -9 29 -20 40 -19 19 -33 20 -412 20 -248 0
-399 -4 -410 -11z"/>
</g>
</svg>
